<svg version="1.1" id="Layer_1" width="32" height="40" xmlns="http://www.w3.org/2000/svg" xmlns:xlink="http://www.w3.org/1999/xlink" x="0px" y="0px"
	 viewBox="0 0 32 40" enable-background="new 0 0 32 40" xml:space="preserve">
<g>
	<path fill="#FFFFFF" d="M0.4,4.4c10.4,0,20.8,0,31.2,0c0,10.4,0,20.8,0,31.2c-10.4,0-20.8,0-31.2,0C0.4,25.2,0.4,14.8,0.4,4.4z
		 M29.2,20.1c0-3.7-1.3-6.8-3.9-9.4c-2.6-2.6-5.7-3.9-9.3-3.9c-3.5,0-6.6,1.2-9.1,3.7c-2.6,2.5-4,5.7-4.1,9.3
		c-0.1,3.7,1.3,6.9,3.9,9.5c2.5,2.5,5.5,3.8,9,3.9c3.8,0.1,7-1.2,9.7-3.9C27.9,26.8,29.1,23.6,29.2,20.1z"/>
	<g>
		<path fill="#931020" d="M29.2,20.1c-0.1,3.6-1.3,6.7-3.9,9.3c-2.7,2.7-5.9,4-9.7,3.9c-3.5-0.1-6.5-1.4-9-3.9
			c-2.6-2.6-3.9-5.8-3.9-9.5c0.1-3.7,1.4-6.8,4.1-9.3c2.5-2.4,5.6-3.7,9.1-3.7c3.6,0,6.8,1.3,9.3,3.9C27.9,13.2,29.2,16.4,29.2,20.1
			z"/>
		<path d="M23.6,20c-4.1-2.7-8.2-5.5-12.3-8.2c0,5.5,0,10.9,0,16.4C15.4,25.5,19.5,22.7,23.6,20z"/>
	</g>
	<path fill="#FFFFFF" d="M23.6,20c-4.1,2.7-8.2,5.5-12.3,8.2c0-5.5,0-10.9,0-16.4C15.4,14.5,19.5,17.3,23.6,20z"/>
</g>
</svg>
