<svg width="36px" height="30px" viewBox="0 0 36 30" version="1.1" xmlns="http://www.w3.org/2000/svg" xmlns:xlink="http://www.w3.org/1999/xlink"><circle cx="14.42" cy="14.42" r="14.3" fill="#931020" stroke="#000" stroke-miterlimit="10" stroke-width="0.25"/><path d="M26.43,12.09l-.1-.1c-.7-10-16.15-10.1-16.79.12C7,12.58,7.7,17.44,10,17.86c1.6,4.33,2.31,8.3,7.87,7.57,5.36,1,6.68-5,7.05-5.63.14-.2.75-1.71,1-1.94C28.29,17.52,29.08,12.58,26.43,12.09Z" transform="translate(-3.58 -0.58)" fill="#fde4d4" stroke="#000" stroke-miterlimit="10" stroke-width="0.25"/><path d="M24.67,7.78a6.51,6.51,0,0,0-1-1.27A9.09,9.09,0,0,0,20.74,5a.14.14,0,0,1-.11,0c-.14-.07-.3-.09-.45-.15a2.81,2.81,0,0,0-.49-.16l-.26,0a26.53,26.53,0,0,0-4.45.2.15.15,0,0,1-.12.1,3.88,3.88,0,0,0-1.41.66.23.23,0,0,1-.08.09c-.21.12-.41.25-.62.39a.16.16,0,0,1-.08.14,4.83,4.83,0,0,0-.64.44,2.61,2.61,0,0,0-.45.65c-.26.46-.74.8-.9,1.31,2.9,1.73,11.43,1.55,14.38-.21C25,8.18,24.8,8,24.67,7.78Z" transform="translate(-3.58 -0.58)" fill="#b2b2b2"/><path d="M11.79,16.28A2.73,2.73,0,0,1,10.49,14c0-.77.21-1.16.64-1.16a3.86,3.86,0,0,1,1.31.5v2.84a3.41,3.41,0,0,0,1.85.26V14l.44.06v2.32a2.49,2.49,0,0,0,.88-.34c0-.19,0-.73,0-1.63.9.39,1.41.61,1.53.68C16.59,17.37,13.48,17.61,11.79,16.28Z" transform="translate(-3.58 -0.58)" fill="#fff" stroke="#000" stroke-miterlimit="10" stroke-width="0.25"/><path d="M15.69,21.36h-.78l-.08-.08v-.92a.54.54,0,0,1,.86,0Z" transform="translate(-3.58 -0.58)" fill="#fff" stroke="#000" stroke-miterlimit="10" stroke-width="0.25"/><path d="M16.58,22.29c-.22.39-.52.4-.87,0v-.93h.87Z" transform="translate(-3.58 -0.58)" fill="#fff" stroke="#000" stroke-miterlimit="10" stroke-width="0.25"/><path d="M17.46,20.38v1h-.8C16.4,20.73,16.72,19.68,17.46,20.38Z" transform="translate(-3.58 -0.58)" fill="#fff" stroke="#000" stroke-miterlimit="10" stroke-width="0.25"/><path d="M18.33,22.37a.49.49,0,0,1-.87-.16v-.83h.87Z" transform="translate(-3.58 -0.58)" fill="#fff" stroke="#000" stroke-miterlimit="10" stroke-width="0.25"/><path d="M19.21,21.36h-.78c-.22-.62-.05-1.56.78-1.06Z" transform="translate(-3.58 -0.58)" fill="#fff" stroke="#000" stroke-miterlimit="10" stroke-width="0.25"/><path d="M20.1,22.37a.48.48,0,0,1-.87-.16v-.83h.87Z" transform="translate(-3.58 -0.58)" fill="#fff" stroke="#000" stroke-miterlimit="10" stroke-width="0.25"/><path d="M21,21.36h-.86c-.19-.36-.08-1.28.4-1.2.14,0,.48.18.46.36Z" transform="translate(-3.58 -0.58)" fill="#fff" stroke="#000" stroke-miterlimit="10" stroke-width="0.25"/><path d="M19.88,16.66a2,2,0,0,1-1.21-1.57,3.35,3.35,0,0,1,1.49-.62c0,.37,0,.92,0,1.65a2.54,2.54,0,0,0,.76.32h1.11V13.8l.46-.2v2.78a5.64,5.64,0,0,0,.9-.34V13.26c1.48-.48,1.86-.82,1.95.7C25.36,16.44,21.92,17.87,19.88,16.66Z" transform="translate(-3.58 -0.58)" fill="#fff" stroke="#000" stroke-miterlimit="10" stroke-width="0.25"/><path d="M18.29,12s0,0,0-.07a.09.09,0,0,0-.1-.09H18c0-.26,0-.46-.17-.38a1.33,1.33,0,0,1,0,.37c-.23,0-.43,0-.34.18h.33c0,.43,0,.92.16.8a4.22,4.22,0,0,1,0-.8A1.76,1.76,0,0,0,18.29,12Z" transform="translate(-3.58 -0.58)" fill="#1d1d1b" stroke="#000" stroke-miterlimit="10" stroke-width="0.25"/><path d="M24.77,17.63c.19-.1,0-.38-.15-.44s0,0,0,0h0c0,.17-.09.45.11.44,0,0,0,0,0,0h0S24.76,17.63,24.77,17.63Z" transform="translate(-3.58 -0.58)" fill="#1d1d1b" stroke="#000" stroke-miterlimit="10" stroke-width="0.25" fill-rule="evenodd"/><path d="M26.43,12.09l-.1-.1c-.7-10-16.15-10.1-16.79.12C7,12.58,7.7,17.44,10,17.86c1.6,4.33,2.31,8.3,7.87,7.57,5.36,1,6.68-5,7.05-5.63.14-.2.75-1.71,1-1.94C28.29,17.52,29.08,12.58,26.43,12.09Z" transform="translate(-3.58 -0.58)" fill="none" stroke="#000" stroke-miterlimit="10" stroke-width="0.25"/></svg>