<?xml version="1.0" encoding="utf-8"?>
<!-- Generator: Adobe Illustrator 26.0.2, SVG Export Plug-In . SVG Version: 6.00 Build 0)  -->
<svg version="1.1" id="Layer_1" xmlns:serif="http://www.serif.com/"
	 xmlns="http://www.w3.org/2000/svg" xmlns:xlink="http://www.w3.org/1999/xlink" x="0px" y="0px" viewBox="0 0 800 800"
	 style="enable-background:new 0 0 800 800;" xml:space="preserve">
<style type="text/css">
	.st0{fill:none;stroke:#981914;stroke-width:70.4397;stroke-miterlimit:10;}
	.st1{fill:#2D2E83;}
	.st2{fill:#FFFFFF;stroke:#000000;stroke-miterlimit:10;}
	.st3{clip-path:url(#SVGID_00000144323045113744908770000005394964494854904740_);}
</style>
<circle class="st0" cx="400" cy="447.7" r="158.8"/>
<g id="Layer_2_1_">
	<g>
		<path class="st1" d="M627.4,525.4c-148.1-47.3-306.4-47.3-454.6,0V370.1c148.1,47.3,306.4,47.3,454.6,0"/>
	</g>
</g>
<g id="Layer_1_1_" xmlns:serif="http://www.serif.com/">
	<g id="Envelope">
		<path class="st2" d="M195.4,502.5c0-13.2,0-26.4,0-39.5c4.7-0.3,7-0.6,11.8-1c0,3.2,0.3,5.6,0.9,7.5c0.6,1.8,1.3,3.2,2.1,4.1
			c0.9,1,1.6,1.5,2.6,1.8c0.9,0.3,1.8,0.3,2.4,0.3c0.5,0,1.1-0.3,1.8-0.5c0.7-0.3,1.2-0.7,1.8-1.2c0.5-0.6,1-1.4,1.4-2.3
			s0.5-2.1,0.5-3.6c0-1.8-0.6-3.2-1.8-4.2c-1.2-1.1-2.7-2.1-4.5-3.1s-3.7-2.3-5.9-3.6c-2-1.5-4.1-3.5-5.9-6.2
			c-1.8-2.7-3.2-6.2-4.4-10.6s-1.8-9.9-1.8-16.6c0-5.7,0.5-10.7,1.5-14.8c1-4.1,2.2-7.2,3.7-9.4c1.5-2.3,3.1-3.9,4.9-4.7
			c1.8-0.9,3.4-1,4.9-0.6c1.4,0.3,2.6,1,3.9,1.8c1.4,0.9,2.6,2,3.7,3.4c1.2,1.5,2.2,3.1,3.1,5.1c1,2,1.8,4.2,2.4,6.9
			c0.3-4.5,0.3-6.8,0.7-11.2c4.4,1,6.6,1.5,11,2.4c0,10.7,0,21.4,0,32.2c-4.7-0.3-7-0.3-11.5-0.8c0-2.4-0.3-4.8-0.7-6.8
			c-0.5-2-1-3.6-1.8-5.2c-0.8-1.5-1.6-2.6-2.6-3.5s-2-1.4-3.1-1.5c-0.5-0.1-1,0-1.5,0.3s-1,0.7-1.4,1.2c-0.5,0.6-0.9,1.4-1.1,2.3
			c-0.3,1-0.5,2-0.5,3.3c0,2.4,0.6,4.7,1.9,6.3c1.3,1.8,2.8,3.4,4.7,4.9s3.9,3.1,6,4.8c2.1,1.6,4.2,3.6,6,6c1.9,2.3,3.4,5.1,4.7,8.3
			S237,462,237,467s-0.5,9.3-1.5,12.8c-1,3.6-2.4,6.8-4,9.2c-1.6,2.6-3.5,4.7-5.5,6c-2,1.5-3.9,2.4-5.9,2.9c-1.6,0.3-3.1,0.3-4.4,0
			s-2.6-1.1-3.7-2.1c-1.1-1-2-2.2-3-3.6c-0.9-1.5-1.5-2.9-2.1-4.4c-0.3,4.7-0.5,6.9-0.7,11.5C202.2,500.7,199.9,501.2,195.4,502.5z
			 M260.6,422.4c-1.4-0.2-2-0.3-3.5-0.3c0,7.5,0,11.4,0,19c4.8-7.5,7.2-10.9,11.9-17.6c-1.9-0.2-2.8-0.3-4.7-0.5c0-5.7,0-8.7,0-14.5
			c7.1,1.2,14.3,2.4,21.5,3.5c0,5.3,0,8,0,13.3c-1.5-0.2-2.2-0.2-3.7-0.3c-3.7,4.9-5.6,7.4-9.4,12.6c4.2,11,8.5,21.9,13,32.9
			c1.5-0.2,2.2-0.2,3.7-0.3c0,5.3,0,7.9,0,13.1c-8.4,1.2-16.8,2.6-25.1,4.1c0-5.9,0-8.8,0-14.6c1.8-0.2,2.6-0.3,4.4-0.5
			c-2.8-7.2-4.1-10.9-7-18.5c-1.9,2.9-2.8,4.4-4.8,7.5c0,4.9,0,7.5,0,12.4c1.4-0.2,2-0.3,3.5-0.3c0,6,0,8.9,0,14.8
			c-8.1,1.5-12,2.3-20.1,3.9c0-6.5,0-9.8,0-16.4c1.4-0.2,2-0.3,3.5-0.3c0-18.1,0-36.2,0-54.4c-1.4-0.2-2-0.3-3.5-0.3
			c0-6.5,0-9.7,0-16.1c8.1,1.6,12,2.4,20.1,3.9C260.6,413.5,260.6,416.5,260.6,422.4z M292.9,412.7c7.2,1,14.3,1.8,21.5,2.7
			c0,4.9,0,7.3,0,12.2c-1.6-0.1-2.4-0.2-4-0.3c0,13.5,0,27,0,40.4c1.6-0.1,2.4-0.2,4-0.3c0,4.9,0,7.4,0,12.2
			c-7.2,0.8-14.4,1.6-21.5,2.7c0-5.3,0-8,0-13.3c1.6-0.2,2.4-0.2,4.1-0.3c0-14.1,0-28.3,0-42.5c-1.6-0.2-2.4-0.2-4.1-0.3
			C292.9,420.7,292.9,418,292.9,412.7z M367.3,429.8c-1.6-0.1-2.6-0.1-4.3-0.1c0,15.4,0,30.8,0,46.2c-5.6,0.3-8.4,0.3-14,0.8
			c-5.6-10.6-11.2-21.1-16.5-31.8c0,8.7,0,13.2,0,21.9c2-0.1,3.1-0.2,5-0.3c0,4.4,0,6.6,0,11c-8,0.7-12,1-19.9,1.8c0-4.7,0-7,0-11.8
			c1.5-0.1,2.3-0.2,3.9-0.3c0-13.3,0-26.4,0-39.6c-1.5-0.1-2.3-0.2-3.7-0.3c0-4.7,0-7,0-11.8c7.5,0.8,11.2,1.1,18.6,1.8
			c5.3,10.6,10.6,21.1,16,31.5c0-7.9-0.1-11.8-0.1-19.7c-1.8-0.1-2.6-0.1-4.4-0.2c0-4.2,0-6.5,0-10.7c7.8,0.5,11.8,0.8,19.6,1.1
			C367.3,423.6,367.3,425.7,367.3,429.8z M370.7,419.5c7,0.3,14.1,0.3,21.1,0.5c0,4.2,0,6.2,0,10.4c-1.6,0-2.4,0-4.1,0
			c0,4.8,0,7.1,0,11.9c4.9,0,7.5,0,12.4,0c0-4.8,0-7.1,0-11.9c-1.5,0-2.3,0-3.9,0c0-4.2,0-6.2,0-10.4c7,0.1,14.1,0,21.2-0.2
			c0,4.2,0,6.2,0,10.5c-1.5,0-2.3,0-3.7,0.1c0,11.5,0,22.9,0,34.4c1.5,0,2.3,0,3.7,0.1c0,4.2,0,6.2,0,10.5c-7-0.2-14.1-0.3-21.2-0.2
			c0-4.2,0-6.2,0-10.4c1.5,0,2.3,0,3.9,0c0-4.8,0-7.1,0-11.9c-4.9,0-7.5,0-12.4,0c0,4.8,0,7.1,0,11.9c1.6,0,2.4,0,4.1,0
			c0,4.2,0,6.2,0,10.4c-7,0.1-14.1,0.3-21.1,0.5c0-4.2,0-6.3,0-10.6c1.4,0,2.1-0.1,3.6-0.1c0-11.5,0-23.1,0-34.7
			c-1.4,0-2.1-0.1-3.6-0.1C370.7,425.8,370.7,423.7,370.7,419.5z M420.7,419.8c13.1-0.3,26.2-1.1,39.3-2c0,7.5,0,11.4,0,18.7
			c-4.5,0.1-6.8,0.2-11.2,0.3c0-2.9,0-4.4,0-7.4c-4.1,0.2-6.2,0.3-10.5,0.3c0,4.4,0,6.8,0,11.2c4.9-0.1,7.4-0.1,12.4-0.2
			c0,4.4,0,6.6,0,11c-4.9-0.1-7.4-0.1-12.4-0.1c0,5.3,0,8,0,13.3c4.1,0.2,6.2,0.2,10.5,0.3c0-3.1,0-4.7,0-7.7
			c4.5,0.1,6.8,0.2,11.2,0.3c0,7.7,0,11.5,0,19.3c-13.1-1-26.2-1.6-39.3-2c0-4.2,0-6.3,0-10.6c1.6,0,2.4,0,4.1,0.1
			c0-11.5,0-23.1,0-34.6c-1.6,0-2.4,0.1-4.1,0.1C420.7,426.1,420.7,424,420.7,419.8z M513.9,483.3c-8.6-1.2-17.3-2.4-26-3.4
			c0-4.9,0-7.3,0-12.2c2.4,0.2,3.7,0.3,6.1,0.3c-0.5-2.6-0.9-3.9-1.4-6.5c-5.3-0.3-8-0.3-13.3-0.7c-0.5,2.4-0.9,3.6-1.4,6
			c2,0.2,3.1,0.2,5,0.3c0,4.8,0,7.2,0,12c-6.9-0.8-13.7-1.5-20.6-1.9c0-4.5,0-6.8,0-11.2c1.8,0.1,2.6,0.2,4.4,0.3
			c3-12.8,6-25.7,8.9-38.6c-1,0.1-1.6,0.1-2.6,0.2c0-4.5,0-6.8,0-11.4c8.3-0.9,16.5-1.8,24.9-2.7c3.9,18.5,7.8,36.9,11.5,55.6
			c1.8,0.2,2.7,0.3,4.5,0.3C513.9,475.2,513.9,478,513.9,483.3z M481.8,450.4c3.4,0,5.1,0.1,8.5,0.1c-1.6-8.1-2.6-12-4.3-19.9
			C484.5,438.5,483.6,442.5,481.8,450.4z M516.5,483.8c0-5.5,0-8.2,0-13.7c1.6,0.2,2.4,0.3,4,0.3c0-15.3,0-30.4,0-45.7
			c-1.6,0.2-2.4,0.3-4,0.3c0-5.5,0-8.2,0-13.6c7.9-1.1,11.8-1.8,19.6-3.2c3.9-0.7,7.3-0.3,10.4,1.2c3.1,1.5,5.5,4.1,7.6,7.5
			s3.6,7.7,4.8,12.7c1.1,5.1,1.8,10.7,1.6,16.7c-0.3,11-1.1,22.8-6.4,32.5c-3.4,6.2-12,9.8-18.3,8
			C528.1,485.5,524.3,484.8,516.5,483.8z M545.8,446.4c0-3.1-0.2-6.2-0.5-9.1s-1-5.5-1.6-7.7c-0.8-2.2-1.8-3.9-3-5.1
			c-1.2-1.1-2.6-1.6-4.4-1.5c-1,0.1-1.5,0.2-2.4,0.3c0,16.1,0,32.3,0,48.4c1,0.1,1.5,0.2,2.4,0.3c1.6,0.1,3.1-0.3,4.4-1.6
			c1.2-1.1,2.2-2.9,3-5.3c0.8-2.3,1.4-5,1.6-8.3C545.5,453.6,545.8,450.1,545.8,446.4z M562.7,492.2c0-10.7,0-21.4,0-32.2
			c4.8,0.3,7.1,0.3,11.8,0.8c0,2.9,0.3,5.2,0.9,6.9s1.4,3.2,2.1,4.2c0.9,1.1,1.6,1.8,2.6,2.3c0.9,0.5,1.6,1,2.4,1
			c0.5,0.1,1.1,0.1,1.8,0s1.2-0.3,1.8-0.9c0.5-0.3,1-1.1,1.4-2c0.3-0.9,0.5-2.1,0.5-3.6c0-1.8-0.6-3.5-1.8-4.7s-2.7-2.6-4.5-3.8
			c-1.8-1.2-3.7-2.6-5.9-4.1c-2.1-1.5-4.1-3.5-6-5.9c-1.8-2.4-3.4-5.4-4.5-8.9c-1.2-3.6-1.9-8-1.9-13.5c0-4.7,0.5-8.9,1.5-12.5
			s2.3-6.8,3.7-9.4c1.5-2.6,3.1-4.7,4.9-6.2c1.8-1.6,3.4-2.6,4.9-3c1.4-0.3,2.6-0.3,3.9-0.3c1.4,0.1,2.6,0.7,3.7,1.6
			c1.2,0.9,2.2,2.1,3.1,3.8c1,1.6,1.6,3.9,2.4,6.5c0.3-5,0.3-7.5,0.7-12.6c4.4-1.1,6.5-1.6,10.8-2.9c0,13.1,0,26.1,0,39.2
			c-4.5,0.3-6.8,0.5-11.4,0.9c0-2.8-0.3-5.2-0.7-7.2c-0.5-2.1-1-3.8-1.6-5.1c-0.8-1.4-1.6-2.3-2.6-2.9s-2-0.8-3.1-0.6
			c-0.5,0.1-1,0.3-1.5,0.7c-0.5,0.3-1,1-1.4,1.6c-0.5,0.7-0.9,1.5-1.1,2.4c-0.3,1-0.5,2-0.5,3.3c0,2.4,0.6,4.4,1.9,5.7
			c1.3,1.5,2.8,2.9,4.7,4.2c1.9,1.4,3.9,2.8,6,4.4s4.1,3.8,6,6.3c1.9,2.6,3.4,6,4.5,10.1c1.3,4.1,1.9,9.3,1.9,15.4
			s-0.5,11.4-1.5,15.3s-2.4,7-3.9,9.2c-1.6,2.2-3.4,3.6-5.5,4.1c-2,0.6-3.9,0.6-5.9,0.1c-1.6-0.3-3.1-1.1-4.4-2.3
			c-1.4-1.1-2.6-2.3-3.7-3.9c-1.1-1.5-2-3-3-4.7c-0.9-1.6-1.6-3.4-2.2-4.9c-0.3,4.1-0.5,6.2-0.7,10.2
			C569.4,493.6,567.2,493.1,562.7,492.2z"/>
		<path class="st2" d="M194.6,503.8v-41.7l0.9-0.1c2.3-0.2,4.1-0.3,5.9-0.5c1.8-0.2,3.5-0.3,5.9-0.5l0.9-0.1v1
			c0,3.1,0.3,5.4,0.9,7.1c0.6,1.6,1.2,3,1.9,3.7c0.7,0.8,1.4,1.3,2.2,1.5c0.9,0.3,1.6,0.3,2.1,0.3c0.3,0,0.7-0.2,1.2-0.3l0.3-0.2
			c0.5-0.2,0.9-0.5,1.5-1c0.4-0.5,0.9-1.1,1.1-2c0.3-0.8,0.5-1.8,0.5-3.2c0-1.5-0.5-2.6-1.4-3.4c-1.1-1-2.5-2-4.4-3
			c-1.7-1-3.6-2.2-5.6-3.5L208,458c-2.4-1.6-4.4-3.8-6.1-6.4c-1.8-2.7-3.3-6.2-4.5-10.8c-1.2-4.5-1.8-10.1-1.8-16.9
			c0-5.7,0.5-10.7,1.5-15.1c1-4.2,2.3-7.5,3.8-9.8c1.6-2.4,3.4-4.1,5.3-4.9c1.9-0.9,3.6-1.1,5.5-0.7c1.4,0.3,2.8,1,4.2,2
			c1.3,0.8,2.6,2,3.9,3.5c1.2,1.5,2.3,3.1,3.4,5.3c0.3,0.8,0.7,1.5,1,2.3c0.1-1.9,0.3-3.7,0.4-6.2l0.1-1.1l0.9,0.2
			c1.1,0.3,2.2,0.5,3.1,0.7c2.6,0.6,4.6,1,7.8,1.6l0.7,0.2v34l-0.9-0.1c-4.6-0.3-6.9-0.3-11.5-0.8l-0.9-0.1V434
			c0-2.4-0.3-4.7-0.7-6.5s-1-3.5-1.7-4.9s-1.5-2.4-2.4-3.1s-1.8-1.1-2.7-1.3c-0.3-0.1-0.7,0-1,0.2c-0.4,0.2-0.8,0.5-1,1
			c-0.4,0.5-0.7,1.1-1,2s-0.4,1.9-0.4,2.9c0,2.3,0.6,4.2,1.6,5.7c1.1,1.6,2.6,3.1,4.5,4.7c1.8,1.5,3.7,2.9,6,4.8
			c2.6,2.1,4.5,4,6.2,6.1c1.9,2.3,3.5,5.2,4.9,8.6c1.3,3.4,1.9,7.5,1.9,12.8c0,5.2-0.5,9.4-1.6,13.2c-1.1,3.8-2.5,7-4.1,9.4
			c-1.6,2.7-3.6,4.9-5.7,6.2c-2.1,1.5-4.1,2.6-6,3.1c-1.8,0.5-3.4,0.5-4.9,0c-1.4-0.3-2.8-1.2-4-2.3c-1.2-1.1-2.3-2.3-3.1-3.8
			c-0.3-0.5-0.5-1-0.9-1.4c-0.2,2.6-0.3,4.7-0.5,8.1l-0.1,0.7l-0.6,0.2c-1.9,0.5-3.4,1-4.8,1.3c-1.9,0.5-3.7,1-6.3,1.8L194.6,503.8z
			 M196.3,463.9v37.4c2-0.6,3.6-1,5.3-1.5c1.3-0.3,2.6-0.7,4.1-1.1c0.2-2.9,0.3-4.9,0.5-7.5c0.1-1,0.1-2.2,0.3-3.4l0.3-4l1.4,3.6
			c0.6,1.6,1.3,3,2,4.3c0.9,1.3,1.6,2.4,2.8,3.4c1,1,2.2,1.6,3.4,1.9s2.6,0.3,4,0c1.7-0.5,3.6-1.4,5.5-2.8c1.9-1.3,3.7-3.3,5.3-5.7
			c1.5-2.3,2.8-5.4,3.9-8.9c1-3.6,1.5-7.6,1.5-12.6c0-4.9-0.6-9-1.8-12c-1.3-3.2-2.8-6-4.5-8.1c-1.5-2-3.5-3.9-6-5.8
			c-2.3-1.8-4.3-3.4-6-4.8c-2-1.6-3.6-3.3-4.9-5c-1.4-1.8-2-4.2-2-6.9c0-1.3,0.2-2.6,0.5-3.6c0.3-1.1,0.8-2,1.3-2.6
			c0.5-0.7,1-1.1,1.6-1.5c0.6-0.3,1.4-0.5,2-0.3c1.2,0.2,2.4,0.8,3.5,1.6c1,1,2,2.2,2.8,3.7c0.9,1.6,1.4,3.4,1.9,5.5
			c0.4,1.8,0.6,3.9,0.7,6.2c3.8,0.3,6,0.5,9.8,0.7v-30.4c-2.8-0.6-4.8-1-7.1-1.6c-0.7-0.2-1.4-0.3-2.2-0.5c-0.3,3.6-0.4,5.9-0.6,9.9
			l-0.5,6.7l-1.4-6.2c-0.5-2.4-1.3-4.6-2.3-6.7s-2-3.6-3.1-4.9c-1.2-1.4-2.4-2.4-3.6-3.1c-1.3-0.9-2.4-1.5-3.7-1.6
			c-1.4-0.3-2.9-0.2-4.4,0.5c-1.6,0.7-3.1,2.1-4.5,4.3c-1.4,2.2-2.6,5.2-3.6,9.1c-1,4.1-1.4,8.9-1.4,14.5c0,6.8,0.6,12,1.7,16.4
			c1.2,4.4,2.6,7.8,4.3,10.2c1.5,2.4,3.5,4.4,5.6,5.9l0.3,0.2c2,1.3,3.8,2.4,5.5,3.4c2,1.1,3.5,2.1,4.7,3.2c1.4,1.1,2.1,2.8,2.1,4.9
			c0,1.6-0.2,2.9-0.6,4c-0.4,1-0.9,1.9-1.5,2.6c-0.8,0.8-1.4,1.1-2.1,1.5l-0.3,0.2c-0.6,0.3-1.1,0.5-1.7,0.5c-0.7,0-1.7-0.2-2.6-0.5
			c-1-0.3-2-1-3-2c-0.9-1-1.6-2.4-2.3-4.4c-0.6-1.8-0.9-4-0.9-6.8c-1.9,0.2-3.4,0.3-4.9,0.3C199.8,463.7,198.2,463.8,196.3,463.9z
			 M590.4,501.4c-1,0-2-0.2-3-0.3c-1.6-0.3-3.3-1.2-4.8-2.4c-1.6-1.4-2.8-2.6-3.9-4.1c-1.1-1.5-2.1-3.1-3-4.9
			c-0.3-0.6-0.6-1.1-0.9-1.6c-0.2,2.1-0.3,3.9-0.4,6.5l-0.1,1l-0.9-0.2c-3-0.5-4.9-1-7.4-1.5c-1-0.2-2.2-0.5-3.6-0.7l-0.7-0.2v-34
			l0.9,0.1c4.8,0.3,7.1,0.3,11.8,0.8l0.9,0.1v1c0,2.8,0.3,4.9,0.9,6.6c0.5,1.6,1.2,2.9,2,3.9c0.7,1,1.4,1.6,2.3,2.1
			c0.6,0.3,1.4,0.9,2,0.9c0.5,0.1,1,0.1,1.6,0c0.5-0.1,0.9-0.2,1.4-0.7l0.1-0.1c0.3-0.3,0.8-0.9,1-1.6c0.3-0.5,0.5-1.5,0.5-3.2
			c0-1.6-0.5-2.9-1.5-4c-1.5-1.5-2.9-2.8-4.3-3.6c-1.7-1.1-3.7-2.6-5.9-4.1s-4.2-3.6-6.1-6.1c-2-2.7-3.5-5.7-4.7-9.2
			c-1.3-3.6-1.9-8.3-1.9-13.8c0-4.7,0.5-9,1.5-12.7c1-3.6,2.3-6.9,3.9-9.7c1.5-2.6,3.2-4.9,5.1-6.5c2-1.8,3.7-2.8,5.3-3.2
			c1.4-0.3,2.7-0.5,4.2-0.3s2.9,0.7,4.1,1.8c1.2,0.9,2.3,2.1,3.4,4.1c0.4,0.7,0.7,1.4,1,2.1c0.1-2.4,0.3-4.6,0.5-7.7l0.1-0.7
			l0.6-0.2c4.4-1.1,6.5-1.6,10.8-2.9l1.1-0.3V433l-0.9,0.1c-2.1,0.2-3.7,0.3-5.4,0.3c-1.8,0.2-3.6,0.3-6,0.5l-0.9,0.1v-1
			c0-2.7-0.3-5-0.7-6.9c-0.4-2-1-3.6-1.6-4.9c-0.6-1.1-1.4-2-2.3-2.6c-0.9-0.5-1.7-0.7-2.6-0.5c-0.3,0.1-0.7,0.2-1.2,0.5
			c-0.4,0.3-0.9,0.8-1.1,1.3c-0.4,0.5-0.7,1.2-1,2.2c-0.3,0.9-0.4,1.9-0.4,2.9c0,2.3,0.5,3.9,1.5,5c1.2,1.5,2.7,2.8,4.5,4.1
			c0.6,0.5,1.3,1,2,1.5c1.4,1,2.6,1.9,4.1,3.1c2.3,1.8,4.3,4,6.1,6.5c2,2.8,3.6,6.2,4.8,10.4c1.3,4.1,1.9,9.3,1.9,15.8
			c0,6.2-0.5,11.5-1.6,15.4c-1.1,4.1-2.5,7.3-4.1,9.5c-1.8,2.3-3.7,3.8-5.9,4.4C592.6,501.2,591.5,501.4,590.4,501.4z M573.8,480
			l1.4,3.9c0.5,1.5,1.2,2.9,2.1,4.9c0.9,1.6,1.8,3.1,2.8,4.6c0.9,1.3,2,2.4,3.6,3.7c1.3,1,2.6,1.8,4.1,2.1c1.9,0.5,3.6,0.5,5.5-0.1
			c1.9-0.5,3.5-1.8,4.9-3.8s2.7-5,3.7-8.9c1-3.8,1.5-8.8,1.5-14.9c0-6.2-0.6-11.2-1.8-15.2c-1.1-3.9-2.6-7.2-4.4-9.8
			c-1.7-2.3-3.7-4.4-5.9-6.2c-1.4-1.1-2.7-2.1-4-3c-0.7-0.5-1.4-1-2-1.5c-2-1.4-3.5-2.8-4.9-4.3s-2-3.6-2-6.4c0-1.3,0.2-2.6,0.5-3.6
			c0.3-1.1,0.8-2,1.2-2.7s1-1.3,1.5-1.8l0.1-0.1c0.7-0.5,1.3-0.7,1.8-0.8c1.2-0.2,2.5,0,3.6,0.7s2,1.8,3,3.3
			c0.8,1.5,1.4,3.3,1.8,5.4c0.4,1.8,0.6,4,0.7,6.4c2-0.2,3.5-0.3,5.1-0.3c1.4-0.2,2.8-0.2,4.5-0.3v-37c-3.4,1-5.5,1.5-9.1,2.4
			c-0.3,4.6-0.4,7-0.6,11.8l-0.3,5.6l-1.4-5.5c-0.6-2.3-1.3-4.5-2.3-6.2s-1.9-2.8-2.9-3.5c-1-0.9-2.2-1.3-3.4-1.5
			c-1.4-0.2-2.5-0.1-3.7,0.3c-1.4,0.3-2.8,1.2-4.6,2.8c-1.7,1.6-3.3,3.6-4.8,6c-1.4,2.6-2.6,5.7-3.6,9.1c-1,3.6-1.4,7.6-1.4,12.2
			c0,5.2,0.6,9.7,1.8,13.2c1,3.3,2.6,6.2,4.4,8.6c1.9,2.3,3.7,4.2,5.7,5.7c2.1,1.6,4.1,2.9,5.9,4.1c1.5,1,3.1,2.3,4.6,3.9
			c1.4,1.4,2,3.3,2,5.5c0,1.6-0.2,3-0.6,4c-0.4,1-1,1.9-1.6,2.4c-0.8,0.7-1.4,1-2.3,1c-0.8,0.1-1.4,0.1-2,0
			c-0.7-0.1-1.5-0.3-2.6-1.1c-1.1-0.7-2-1.5-2.9-2.6s-1.6-2.8-2.3-4.5c-0.6-1.6-0.9-3.8-0.9-6.3c-3.9-0.3-6.2-0.5-10.1-0.7v30.3
			c1,0.2,2,0.3,2.9,0.6c2.2,0.5,3.9,0.9,6.4,1.3c0.1-2.3,0.3-4,0.4-6.1c0.1-1,0.1-1.9,0.3-3.1L573.8,480z M239.5,492.8v-18.4
			l0.8-0.2c1.1-0.2,1.8-0.3,2.7-0.3v-52.6c-0.9-0.2-1.5-0.2-2.6-0.3l-0.9-0.1v-18.2l1,0.2c7.3,1.6,11.3,2.3,17.9,3.6l2.9,0.5v0.8
			c0.1,5.6,0.1,8.6,0.1,14.5v1.1l-1-0.2c-1-0.2-1.6-0.2-2.5-0.3v14.8c3.5-5.5,5.9-8.8,9.4-13.7c-0.3,0-0.5-0.1-0.8-0.1
			c-0.7-0.1-1.4-0.2-2.3-0.3l-0.9-0.1V407l1,0.2c7.9,1.4,14.9,2.4,21.5,3.5l0.8,0.2v15.3l-1-0.2c-1-0.2-1.5-0.2-2.4-0.2
			c-0.3,0-0.6-0.1-0.9-0.1c-3.5,4.4-5.3,6.9-8.7,11.7c3.9,10.1,8.1,21,12.6,31.7c0.7-0.1,1.2-0.2,1.9-0.2c0.4,0,0.9-0.1,1.4-0.2
			l0.9-0.1v14.8l-0.8,0.2c-7.6,1.1-15.5,2.4-25.1,4.1l-1,0.2v-16.6l1.9-0.2c0.8-0.1,1.4-0.2,2.1-0.3c-1.9-4.7-3.1-8-4.6-12.3
			c-0.4-1-0.9-2.3-1.3-3.5c-0.9,1.3-1.5,2.3-2.3,3.6c-0.4,0.7-0.9,1.4-1.4,2.3v11c0.9-0.2,1.5-0.2,2.5-0.3l0.9-0.1v1v15.7l-0.8,0.2
			c-8,1.5-12,2.3-20.1,3.9L239.5,492.8z M241.2,476.2v14.3c7.2-1.5,11.2-2.3,18.4-3.6v-13c-0.9,0.1-1.5,0.2-2.5,0.3l-1,0.2v-13.9
			l0.2-0.3c0.6-1,1.1-1.6,1.5-2.4c1-1.6,1.9-3,3.1-5l0.9-1.4l0.6,1.6c0.7,1.9,1.4,3.6,1.9,5c1.7,4.7,3,8.1,5.1,13.5l0.5,1.1
			l-1.1,0.2c-1.4,0.2-2.2,0.3-3.4,0.3h-0.3v12.6c8.9-1.5,16.4-2.8,23.4-3.8v-11.2c-0.2,0-0.3,0-0.4,0c-0.8,0.1-1.4,0.1-2.4,0.2
			l-0.6,0.1l-0.3-0.7c-4.6-11.1-9-22.4-13-32.9l-0.3-0.5l0.6-0.8c3.6-4.9,5.5-7.5,9.1-12.2l0.3-0.3l0.4,0.1c0.5,0.1,0.9,0.1,1.4,0.2
			s1,0.1,1.5,0.2v-11.4c-6-1-12.5-2-19.8-3.2V422c0.6,0.1,1,0.2,1.5,0.2c0.7,0.1,1.4,0.2,2.3,0.3l1.6,0.2l-1,1.5
			c-4.6,6.5-7,10.1-11.9,17.5l-1.5,2.4V421l0.9,0.1c1,0.1,1.6,0.2,2.6,0.3c0-4.9,0-7.8-0.1-12.6l-1.4-0.3c-6.4-1.1-10.3-1.9-17-3.4
			v14c0.9,0.1,1.6,0.2,2.7,0.3l0.8,0.2v56.2l-0.9,0.1C242.8,476,242.2,476,241.2,476.2z M539.3,488.4c-1.3,0-2.6-0.2-3.7-0.5
			c-7.8-1.5-11.8-2.1-19.3-3.2l-0.8-0.2v-15.7l1,0.2c1.3,0.2,2,0.2,3,0.3v-43.5c-1,0.2-1.7,0.2-3.1,0.3l-0.9,0.1v-15.6l0.8-0.2
			c7.9-1.1,11.8-1.8,19.6-3.2c4.2-0.7,7.8-0.3,10.8,1.3c3.1,1.6,5.8,4.2,8,7.8c2,3.4,3.7,7.8,4.9,13.1c1.3,5.8,1.8,11.5,1.6,17
			c-0.3,11.4-1.2,23.2-6.5,33C551.9,484.8,545.4,488.4,539.3,488.4z M517.3,482.9c7.1,1,11.1,1.6,18.6,3.1h0.1
			c6.1,1.8,14.1-1.8,17.3-7.5c5.1-9.4,6-21,6.2-32.1c0.2-5.3-0.4-10.8-1.6-16.5c-1.1-5-2.6-9.2-4.6-12.4c-2-3.4-4.4-5.6-7.3-7.1
			c-2.8-1.5-6-1.8-9.9-1.1c-7.5,1.3-11.4,2-18.9,3.1v11.8c1-0.1,1.8-0.2,3-0.3l1-0.2v47.9l-0.9-0.1c-1.3-0.2-2-0.2-3.1-0.3
			L517.3,482.9L517.3,482.9z M514.8,484.4l-1-0.2c-7.8-1.1-16.8-2.3-26-3.4l-0.9-0.1v-14.1l0.9,0.1c2,0.2,3.1,0.3,4.9,0.3
			c-0.2-0.7-0.3-1.4-0.4-2c-0.2-0.8-0.3-1.6-0.5-2.6c-4.7-0.3-7.3-0.3-11.9-0.6c-0.2,0.9-0.3,1.6-0.5,2.3c-0.1,0.6-0.3,1.1-0.4,1.8
			c0.8,0.1,1.4,0.1,2,0.2c0.6,0,1.1,0.1,1.9,0.2l0.9,0.1v14l-1-0.2c-7.4-0.9-14.1-1.5-20.6-1.9l-0.9-0.1V465l0.9,0.1
			c0.9,0.1,1.5,0.1,2.3,0.2c0.5,0.1,0.9,0.1,1.5,0.2l2-8.7c2-9.1,4.3-18.6,6.4-27.8c-0.5,0-0.9,0.1-1.4,0.2l-1,0.2v-13.6l0.9-0.1
			c7.7-0.8,15.4-1.6,22.9-2.4l2.7-0.3l0.2,0.9c3.7,17.3,7.6,36,11.4,54.9c1.4,0.2,2.3,0.2,3.7,0.3l0.9,0.1L514.8,484.4L514.8,484.4
			L514.8,484.4L514.8,484.4z M488.8,479.1c8.5,1,17,2.1,24.3,3.1v-11.4c-1.4-0.1-2.2-0.2-3.7-0.3l-0.6-0.1l-0.1-0.7
			c-3.7-18.8-7.6-37.4-11.3-54.7l-1.2,0.2c-7.3,0.8-14.7,1.6-22.1,2.3v9.4c0.3,0,0.6-0.1,1-0.1c0.3,0,0.5,0,0.8-0.1l1.1-0.1
			l-0.3,1.4c-2.2,9.7-4.4,19.5-6.6,29.1l-2.4,10.2H467c-0.9-0.1-1.5-0.1-2.3-0.2c-0.4,0-0.9-0.1-1.3-0.1v9.3c6,0.3,12.2,1,18.9,1.8
			v-9.9c-0.3,0-0.7-0.1-1-0.1c-1-0.1-1.9-0.1-3.1-0.2l-1-0.1l0.3-1.1c0.3-1.1,0.5-2.1,0.6-3c0.3-1,0.4-1.8,0.7-3l0.2-0.8l0.7,0.1
			c5.4,0.3,8,0.3,13.3,0.7l0.8,0.1l0.2,0.7c0.3,1.3,0.5,2.3,0.7,3.3s0.4,2,0.6,3.3l0.3,1.2l-1.5-0.1c-1.9-0.2-3.1-0.2-4.9-0.3
			L488.8,479.1L488.8,479.1z M292,483.5v-15.3l0.8-0.1c1.1-0.2,1.8-0.2,2.6-0.3c0.3,0,0.5,0,0.7-0.1V427c-0.6-0.1-1.2-0.2-1.8-0.2
			c-0.5,0-0.9-0.1-1.5-0.2l-0.9-0.1v-15.3l1,0.2c7.3,1,14.6,1.9,21.5,2.7l0.8,0.1v14l-0.9-0.1c-0.9-0.1-1.4-0.1-2-0.2
			c-0.3,0-0.6-0.1-1-0.1v38.5c0.4,0,0.8-0.1,1.1-0.1c0.6-0.1,1.2-0.1,2-0.2l0.9-0.1V480l-0.9,0.1c-6.6,0.7-13.9,1.6-21.5,2.7
			L292,483.5z M293.7,470v11.2c7-1,13.6-1.8,19.8-2.4v-10.3c-0.3,0-0.7,0.1-1,0.1c-0.6,0.1-1.3,0.2-2,0.2l-0.9,0.1v-42.5l0.9,0.1
			c0.8,0,1.4,0.1,2,0.2c0.3,0,0.7,0.1,1.1,0.1v-10.2c-6.4-0.7-13-1.6-19.8-2.4v11.2c0.3,0,0.5,0,0.7,0.1c0.9,0.1,1.5,0.1,2.6,0.3
			l0.8,0.1v44.2l-0.9,0.1c-0.6,0.1-1,0.1-1.5,0.2C294.9,469.9,294.4,470,293.7,470z M316.7,480.4v-13.8l0.9-0.1
			c0.8,0,1.4-0.1,1.9-0.2c0.3,0,0.8-0.1,1.1-0.1v-37.8c-0.4,0-0.8-0.1-1.1-0.1c-0.6-0.1-1.1-0.1-1.8-0.2l-0.9-0.1v-13.7l0.9,0.2
			c7.3,0.8,11,1.1,18.6,1.8l0.5,0.1l0.3,0.5c4.6,9.4,9.5,18.9,14.4,28.3c0-2.3,0-4.2,0-6.2c0-2.7,0-5.5,0-8.8c-0.1,0-0.3,0-0.4,0
			c-1-0.1-1.9-0.1-3.2-0.2l-0.9-0.1v-12.8l0.9,0.1c7.8,0.5,11.8,0.8,19.6,1.1l0.9,0.1v1c-0.1,4.2-0.1,6.2-0.1,10.4v1l-0.9-0.1
			c-1.4-0.1-2.2-0.1-3.4-0.1v46.1l-1.1,0.1c-5.5,0.3-8.3,0.3-13.6,0.8l-0.5,0.1l-1.9-3.5c-4.4-8.3-9-17-13.4-25.7v17.2
			c0.6,0,1.1-0.1,1.6-0.1c0.8-0.1,1.5-0.1,2.5-0.2h0.9v12.9l-1.4,0.2c-7.5,0.6-11.6,1-19.4,1.8h-1.1L316.7,480.4L316.7,480.4z
			 M318.4,468.6v9.7c7.1-0.7,11.2-1.1,18.2-1.6v-9.1c-0.6,0-1,0.1-1.5,0.1c-0.8,0.1-1.5,0.2-2.6,0.2h-0.9v-26.6l1.6,3.2
			c4.9,9.7,10,19.4,15,28.9l1.4,2.4c4.9-0.3,7.7-0.5,12.6-0.7v-46.2h0.9c1.4,0,2.3,0,3.4,0.1c0-3.2,0-5.2,0.1-8.4
			c-7-0.3-10.9-0.5-17.9-1v8.8c0.9,0.1,1.5,0.1,2.4,0.2c0.4,0,0.9,0,1.3,0.1h0.9v1c0,3.9,0,6.8,0,9.8c0,2.9,0.1,6,0.1,9.9v3.6
			l-1.6-3.1c-5.4-10.3-10.6-20.8-15.8-31c-7-0.6-10.6-1-17.3-1.6v9.7c0.3,0,0.7,0.1,1,0.1c0.6,0.1,1.1,0.2,1.9,0.2l0.9,0.1V469
			l-0.9,0.1c-0.8,0-1.4,0.1-1.9,0.2C319.2,468.5,318.9,468.6,318.4,468.6z M460.9,478.2l-0.9-0.1c-12.6-0.9-25.4-1.6-39.3-2h-0.8
			v-12.6h0.9c1.4,0,2,0,3.3,0.1v-32.7c-0.4,0-0.8,0-1.1,0c-0.6,0-1.3,0.1-2.2,0.1h-0.9v-12.2h0.9c12.1-0.3,24.9-1,39.2-2l0.9-0.1
			v20.8H460c-2.3,0-3.9,0.1-5.6,0.2c-1.6,0.1-3.4,0.1-5.6,0.2H448v-7.3c-3.4,0.2-5.4,0.2-8.7,0.3v9.3c1,0,1.9,0,2.6,0
			c2.9,0,5.2-0.1,8.9-0.2h0.9v13h-0.9c-4.7-0.1-7.1-0.1-11.5-0.1v11.4c2.3,0.2,3.9,0.2,5.8,0.2c0.9,0,1.9,0.1,3,0.1v-7.7h0.9
			c2.3,0,4,0.1,5.6,0.2s3.4,0.1,5.6,0.2h0.9L460.9,478.2L460.9,478.2z M421.6,474.1c13.2,0.5,25.5,1.1,37.5,2v-17.2
			c-1.9,0-3.3-0.1-4.8-0.2c-1.4-0.1-3-0.1-4.8-0.2v7.7h-0.9c-1.5-0.1-2.7-0.1-3.8-0.2c-2.1-0.1-3.9-0.1-6.6-0.2l-0.9-0.1v-15.2h0.9
			c4.6,0,7.1,0,11.5,0.1v-9.1c-3.1,0.1-5.3,0.2-8,0.2c-1,0-2.2,0-3.5,0.1h-0.9v-13.2h0.9c4.2-0.1,6.2-0.2,10.5-0.3l0.9-0.1v7.4
			c1.9,0,3.3-0.1,4.8-0.2s3-0.1,4.8-0.2v-16.6c-13.6,1-26,1.6-37.5,2v8.2c0.5,0,0.9,0,1.3,0c0.6,0,1.2,0,2,0h0.9v36.7l-0.9-0.1
			c-1.4-0.1-2.2-0.1-3.3-0.1v8.6h-0.1V474.1L421.6,474.1z M369.8,476.6V464h0.9c0.7,0,1.2,0,1.7,0c0.3,0,0.6,0,1,0v-32.8
			c-0.3,0-0.6,0-0.9,0c-0.5,0-1.1-0.1-1.8-0.1h-0.9v-12.7l0.9,0.1c7.1,0.3,14.3,0.3,21.1,0.5h0.9v12.3h-4.1v9.9h10.6v-10.1h-3.9
			v-12.3h0.9c7,0.1,14.1,0,21.2-0.2h0.9V431h-0.9c-1.1,0-1.9,0-2.9,0v32.5c1,0,1.8,0,3,0.1l0.9,0.1v12.4h-0.9
			c-7-0.2-14.1-0.3-21.2-0.2h-0.9v-12.3h3.9v-10.1h-10.6v10.1h4.1V476h-0.9c-6.4,0.1-13.1,0.2-21.1,0.5L369.8,476.6L369.8,476.6z
			 M371.5,466v8.6c7.3-0.3,13.5-0.3,19.4-0.5v-8.4h-4.1v-14H401v13.9h-3.9v8.4c6.5-0.1,13,0,19.5,0.2v-8.5c-1,0-1.7,0-2.9,0h-0.9
			v-36.4l0.9-0.1c1.1-0.1,1.9-0.1,3-0.1v-8.5c-6.5,0.2-13,0.3-19.5,0.2v8.5h3.9v13.9H387v-13.9h4.1v-8.4c-6.4-0.2-13-0.3-19.4-0.5
			v8.7c0.3,0,0.7,0,1,0c0.5,0,1,0,1.7,0h0.9V466h-0.9c-0.7,0-1.3,0-1.8,0C372.2,466,371.8,466,371.5,466z M536.5,472.9
			c-0.1,0-0.3,0-0.3,0c-0.5-0.1-0.9-0.1-1.2-0.2s-0.8-0.1-1.2-0.2l-0.9-0.1v-50.2l0.9-0.1c0.4,0,0.8-0.1,1.1-0.2
			c0.4-0.1,0.9-0.2,1.4-0.2c1.9-0.2,3.6,0.3,5,1.8s2.4,3.4,3.1,5.5c0.6,2,1.4,4.7,1.7,8c0.3,2.9,0.5,6.2,0.5,9.3
			c0,3.2-0.2,6.6-0.5,10.4c-0.3,3.1-0.9,6-1.7,8.6c-0.9,2.4-1.9,4.4-3.1,5.7C540,472.3,538.4,472.9,536.5,472.9z M534.7,470.7
			c0.2,0,0.3,0.1,0.5,0.1c0.3,0.1,0.7,0.1,1.1,0.2c1.5,0.1,2.8-0.3,3.7-1.3c1.1-1,2-2.7,2.7-4.9c0.8-2.4,1.4-5.1,1.6-8.1
			c0.3-3.6,0.5-7,0.5-10.1s-0.2-6.2-0.5-9c-0.3-3.1-1-5.6-1.6-7.5c-0.6-1.8-1.6-3.5-2.7-4.7c-1-1-2.3-1.4-3.7-1.2
			c-0.5,0.1-0.9,0.1-1.3,0.2c-0.1,0-0.3,0.1-0.4,0.1L534.7,470.7L534.7,470.7z M491.4,451.4h-1.1c-1.7,0-3,0-4.3-0.1
			c-1.3,0-2.6,0-4.2,0h-1.1l0.3-1.2c1.4-6.2,2.2-10.1,3.3-15.3l1.8-8.5l0.9,4c0.6,2.9,1.1,5.4,1.6,7.6c0.9,3.7,1.5,7.2,2.6,12.3
			L491.4,451.4z M483,449.3c1.1,0,2.1,0,3.1,0s2,0,3.1,0c-0.9-4.4-1.6-7.6-2.4-11c-0.3-1.1-0.5-2.4-0.9-3.7l-0.1,0.5
			C485,440.2,484.2,443.8,483,449.3z"/>
	</g>
</g>

</svg>
